<svg width="19" height="19" viewBox="0 0 19 19" fill="none" xmlns="http://www.w3.org/2000/svg">
<path fill-rule="evenodd" clip-rule="evenodd" d="M3.95833 2.375C3.53841 2.375 3.13568 2.54181 2.83875 2.83875C2.54181 3.13568 2.375 3.53841 2.375 3.95833V15.0417C2.375 15.4616 2.54181 15.8643 2.83875 16.1613C3.13568 16.4582 3.53841 16.625 3.95833 16.625H15.0417C15.4616 16.625 15.8643 16.4582 16.1613 16.1613C16.4582 15.8643 16.625 15.4616 16.625 15.0417V3.95833C16.625 3.53841 16.4582 3.13568 16.1613 2.83875C15.8643 2.54181 15.4616 2.375 15.0417 2.375H3.95833ZM13.4188 7.75517C13.5673 7.60672 13.6508 7.40535 13.6509 7.19534C13.6509 6.98534 13.5676 6.7839 13.4191 6.63535C13.2707 6.48681 13.0693 6.40331 12.8593 6.40324C12.6493 6.40316 12.4479 6.48651 12.2993 6.63496L8.38058 10.5537L6.70146 8.87458C6.62796 8.80103 6.54069 8.74267 6.44463 8.70285C6.34858 8.66302 6.24562 8.6425 6.14163 8.64247C5.93163 8.64239 5.73019 8.72574 5.58165 8.87419C5.4331 9.02263 5.3496 9.22401 5.34953 9.43401C5.34945 9.64402 5.43281 9.84545 5.58125 9.994L7.76467 12.1774C7.84554 12.2583 7.94156 12.3225 8.04724 12.3663C8.15292 12.4101 8.26619 12.4326 8.38058 12.4326C8.49498 12.4326 8.60825 12.4101 8.71393 12.3663C8.81961 12.3225 8.91563 12.2583 8.9965 12.1774L13.4188 7.75517Z" fill="#31C1E1"/>
</svg>
