<svg width="42" height="40" viewBox="0 0 42 40" fill="none" xmlns="http://www.w3.org/2000/svg">
<g clip-path="url(#clip0_121_707)">
<path d="M28.2638 17.5C28.2638 21.65 24.8208 25 20.5555 25C16.2902 25 12.8472 21.65 12.8472 17.5C12.8472 13.35 16.2902 10 20.5555 10C24.8208 10 28.2638 13.35 28.2638 17.5Z" fill="#31C1E1"/>
<path fill-rule="evenodd" clip-rule="evenodd" d="M41.1111 20C41.1111 31.05 31.9125 40 20.5556 40C9.19861 40 0 31.05 0 20C0 8.95 9.19861 0 20.5556 0C31.9125 0 41.1111 8.95 41.1111 20ZM10.2778 34.375C10.6889 33.71 14.6715 27.5 20.5299 27.5C26.3625 27.5 30.3708 33.725 30.7819 34.375C33.1712 32.7675 35.1234 30.6193 36.4706 28.1153C37.8178 25.6113 38.5197 22.8264 38.516 20C38.516 10.325 30.4736 2.5 20.5299 2.5C10.5861 2.5 2.54375 10.325 2.54375 20C2.54375 25.95 5.60139 31.225 10.2778 34.375Z" fill="#31C1E1"/>
</g>
<defs>
<clipPath id="clip0_121_707">
<rect width="41.1111" height="40" fill="white"/>
</clipPath>
</defs>
</svg>
